HIERARCHY
ROOT Hips
{
	OFFSET 0.000000 0.000000 0.000000
	CHANNELS 6 Xposition Yposition Zposition Zrotation Xrotation Yrotation
	JOINT Spine
	{
		OFFSET 0.000000 0.059888 0.006665
		CHANNELS 6 Xposition Yposition Zposition Zrotation Xrotation Yrotation
		JOINT Chest
		{
			OFFSET 0.000000 0.125681 -0.015911
			CHANNELS 6 Xposition Yposition Zposition Zrotation Xrotation Yrotation
			JOINT UpperChest
			{
				OFFSET 0.000000 0.122768 -0.001652
				CHANNELS 6 Xposition Yposition Zposition Zrotation Xrotation Yrotation
				JOINT Neck
				{
					OFFSET 0.000000 0.155865 0.008735
					CHANNELS 6 Xposition Yposition Zposition Zrotation Xrotation Yrotation
					JOINT Head
					{
						OFFSET 0.000000 0.095969 -0.000410
						CHANNELS 6 Xposition Yposition Zposition Zrotation Xrotation Yrotation
						JOINT LeftEye
						{
							OFFSET 0.015267 0.059218 0.021494
							CHANNELS 6 Xposition Yposition Zposition Zrotation Xrotation Yrotation
							End Site
							{
								OFFSET 0.015267 0.059218 0.021494
							}
						}
						JOINT RightEye
						{
							OFFSET -0.015267 0.059218 0.021494
							CHANNELS 6 Xposition Yposition Zposition Zrotation Xrotation Yrotation
							End Site
							{
								OFFSET -0.015267 0.059218 0.021494
							}
						}
					}
				}
				JOINT LeftShoulder
				{
					OFFSET 0.025383 0.124268 0.007699
					CHANNELS 6 Xposition Yposition Zposition Zrotation Xrotation Yrotation
					JOINT LeftUpperArm
					{
						OFFSET 0.136062 0.000000 0.000000
						CHANNELS 6 Xposition Yposition Zposition Zrotation Xrotation Yrotation
						JOINT LeftLowerArm
						{
							OFFSET 0.225446 0.000000 0.000000
							CHANNELS 6 Xposition Yposition Zposition Zrotation Xrotation Yrotation
							JOINT LeftHand
							{
								OFFSET 0.256325 0.000003 0.000015
								CHANNELS 6 Xposition Yposition Zposition Zrotation Xrotation Yrotation
								JOINT LeftIndexProximal
								{
									OFFSET 0.074229 0.008101 0.022282
									CHANNELS 6 Xposition Yposition Zposition Zrotation Xrotation Yrotation
									JOINT LeftIndexIntermediate
									{
										OFFSET 0.037712 0.000000 -0.000001
										CHANNELS 6 Xposition Yposition Zposition Zrotation Xrotation Yrotation
										JOINT LeftIndexDistal
										{
											OFFSET 0.023218 0.000022 0.000021
											CHANNELS 6 Xposition Yposition Zposition Zrotation Xrotation Yrotation
											End Site
											{
												OFFSET 0.023218 0.000022 0.000021
											}
										}
									}
								}
								JOINT LeftLittleProximal
								{
									OFFSET 0.069261 0.008101 -0.033073
									CHANNELS 6 Xposition Yposition Zposition Zrotation Xrotation Yrotation
									JOINT LeftLittleIntermediate
									{
										OFFSET 0.035643 0.000000 0.000000
										CHANNELS 6 Xposition Yposition Zposition Zrotation Xrotation Yrotation
										JOINT LeftLittleDistal
										{
											OFFSET 0.020542 0.000000 0.000000
											CHANNELS 6 Xposition Yposition Zposition Zrotation Xrotation Yrotation
											End Site
											{
												OFFSET 0.020542 0.000000 0.000000
											}
										}
									}
								}
								JOINT LeftMiddleProximal
								{
									OFFSET 0.075240 0.008101 0.002320
									CHANNELS 6 Xposition Yposition Zposition Zrotation Xrotation Yrotation
									JOINT LeftMiddleIntermediate
									{
										OFFSET 0.042007 0.000000 0.000000
										CHANNELS 6 Xposition Yposition Zposition Zrotation Xrotation Yrotation
										JOINT LeftMiddleDistal
										{
											OFFSET 0.025915 0.000000 0.000000
											CHANNELS 6 Xposition Yposition Zposition Zrotation Xrotation Yrotation
											End Site
											{
												OFFSET 0.025915 0.000000 0.000000
											}
										}
									}
								}
								JOINT LeftRingProximal
								{
									OFFSET 0.074383 0.008101 -0.015403
									CHANNELS 6 Xposition Yposition Zposition Zrotation Xrotation Yrotation
									JOINT LeftRingIntermediate
									{
										OFFSET 0.038967 0.000000 0.000000
										CHANNELS 6 Xposition Yposition Zposition Zrotation Xrotation Yrotation
										JOINT LeftRingDistal
										{
											OFFSET 0.022488 0.000000 0.000000
											CHANNELS 6 Xposition Yposition Zposition Zrotation Xrotation Yrotation
											End Site
											{
												OFFSET 0.022488 0.000000 0.000000
											}
										}
									}
								}
								JOINT LeftThumbProximal
								{
									OFFSET 0.003995 -0.010985 0.018096
									CHANNELS 6 Xposition Yposition Zposition Zrotation Xrotation Yrotation
									JOINT LeftThumbIntermediate
									{
										OFFSET 0.052819 -0.000008 -0.000074
										CHANNELS 6 Xposition Yposition Zposition Zrotation Xrotation Yrotation
										JOINT LeftThumbDistal
										{
											OFFSET 0.032489 0.000042 -0.000035
											CHANNELS 6 Xposition Yposition Zposition Zrotation Xrotation Yrotation
											End Site
											{
												OFFSET 0.032489 0.000042 -0.000035
											}
										}
									}
								}
							}
						}
					}
				}
				JOINT RightShoulder
				{
					OFFSET -0.025383 0.124268 0.007699
					CHANNELS 6 Xposition Yposition Zposition Zrotation Xrotation Yrotation
					JOINT RightUpperArm
					{
						OFFSET -0.136062 0.000000 0.000000
						CHANNELS 6 Xposition Yposition Zposition Zrotation Xrotation Yrotation
						JOINT RightLowerArm
						{
							OFFSET -0.225446 0.000000 0.000000
							CHANNELS 6 Xposition Yposition Zposition Zrotation Xrotation Yrotation
							JOINT RightHand
							{
								OFFSET -0.256325 0.000003 0.000015
								CHANNELS 6 Xposition Yposition Zposition Zrotation Xrotation Yrotation
								JOINT RightIndexProximal
								{
									OFFSET -0.074229 0.008101 0.022282
									CHANNELS 6 Xposition Yposition Zposition Zrotation Xrotation Yrotation
									JOINT RightIndexIntermediate
									{
										OFFSET -0.037712 0.000000 -0.000001
										CHANNELS 6 Xposition Yposition Zposition Zrotation Xrotation Yrotation
										JOINT RightIndexDistal
										{
											OFFSET -0.023218 0.000022 0.000021
											CHANNELS 6 Xposition Yposition Zposition Zrotation Xrotation Yrotation
											End Site
											{
												OFFSET -0.023218 0.000022 0.000021
											}
										}
									}
								}
								JOINT RightLittleProximal
								{
									OFFSET -0.069261 0.008101 -0.033073
									CHANNELS 6 Xposition Yposition Zposition Zrotation Xrotation Yrotation
									JOINT RightLittleIntermediate
									{
										OFFSET -0.035643 0.000000 0.000000
										CHANNELS 6 Xposition Yposition Zposition Zrotation Xrotation Yrotation
										JOINT RightLittleDistal
										{
											OFFSET -0.020542 0.000000 0.000000
											CHANNELS 6 Xposition Yposition Zposition Zrotation Xrotation Yrotation
											End Site
											{
												OFFSET -0.020542 0.000000 0.000000
											}
										}
									}
								}
								JOINT RightMiddleProximal
								{
									OFFSET -0.075240 0.008101 0.002320
									CHANNELS 6 Xposition Yposition Zposition Zrotation Xrotation Yrotation
									JOINT RightMiddleIntermediate
									{
										OFFSET -0.042007 0.000000 0.000000
										CHANNELS 6 Xposition Yposition Zposition Zrotation Xrotation Yrotation
										JOINT RightMiddleDistal
										{
											OFFSET -0.025915 0.000000 0.000000
											CHANNELS 6 Xposition Yposition Zposition Zrotation Xrotation Yrotation
											End Site
											{
												OFFSET -0.025915 0.000000 0.000000
											}
										}
									}
								}
								JOINT RightRingProximal
								{
									OFFSET -0.074383 0.008101 -0.015403
									CHANNELS 6 Xposition Yposition Zposition Zrotation Xrotation Yrotation
									JOINT RightRingIntermediate
									{
										OFFSET -0.038967 0.000000 0.000000
										CHANNELS 6 Xposition Yposition Zposition Zrotation Xrotation Yrotation
										JOINT RightRingDistal
										{
											OFFSET -0.022488 0.000000 0.000000
											CHANNELS 6 Xposition Yposition Zposition Zrotation Xrotation Yrotation
											End Site
											{
												OFFSET -0.022488 0.000000 0.000000
											}
										}
									}
								}
								JOINT RightThumbProximal
								{
									OFFSET -0.003995 -0.010985 0.018096
									CHANNELS 6 Xposition Yposition Zposition Zrotation Xrotation Yrotation
									JOINT RightThumbIntermediate
									{
										OFFSET -0.052819 -0.000008 -0.000074
										CHANNELS 6 Xposition Yposition Zposition Zrotation Xrotation Yrotation
										JOINT RightThumbDistal
										{
											OFFSET -0.032489 0.000042 -0.000035
											CHANNELS 6 Xposition Yposition Zposition Zrotation Xrotation Yrotation
											End Site
											{
												OFFSET -0.032489 0.000042 -0.000035
											}
										}
									}
								}
							}
						}
					}
				}
			}
		}
	}
	JOINT LeftUpperLeg
	{
		OFFSET 0.087143 -0.045243 0.001548
		CHANNELS 6 Xposition Yposition Zposition Zrotation Xrotation Yrotation
		JOINT LeftLowerLeg
		{
			OFFSET 0.000000 -0.394432 -0.000001
			CHANNELS 6 Xposition Yposition Zposition Zrotation Xrotation Yrotation
			JOINT LeftFoot
			{
				OFFSET 0.000000 -0.466446 0.003058
				CHANNELS 6 Xposition Yposition Zposition Zrotation Xrotation Yrotation
				JOINT LeftToes
				{
					OFFSET 0.000000 -0.079218 0.140851
					CHANNELS 6 Xposition Yposition Zposition Zrotation Xrotation Yrotation
					End Site
					{
						OFFSET 0.000000 -0.079218 0.140851
					}
				}
			}
		}
	}
	JOINT RightUpperLeg
	{
		OFFSET -0.087143 -0.045243 0.001548
		CHANNELS 6 Xposition Yposition Zposition Zrotation Xrotation Yrotation
		JOINT RightLowerLeg
		{
			OFFSET 0.000000 -0.394432 -0.000001
			CHANNELS 6 Xposition Yposition Zposition Zrotation Xrotation Yrotation
			JOINT RightFoot
			{
				OFFSET 0.000000 -0.466446 0.003058
				CHANNELS 6 Xposition Yposition Zposition Zrotation Xrotation Yrotation
				JOINT RightToes
				{
					OFFSET 0.000000 -0.079218 0.140851
					CHANNELS 6 Xposition Yposition Zposition Zrotation Xrotation Yrotation
					End Site
					{
						OFFSET 0.000000 -0.079218 0.140851
					}
				}
			}
		}
	}
}
MOTION
Frames: 4
Frame Time: 0.041667
0.001285 1.034199 0.003222 -1.697092 15.681062 15.252820 0.000000 0.059888 0.006665 -2.952936 7.468622 3.221373 0.000000 0.125681 -0.015911 -2.373607 0.636967 -0.541275 -0.000000 0.122768 -0.001652 -0.000016 -12.397665 -0.000050 0.000000 0.155865 0.008735 1.277923 13.383476 0.110545 0.000000 0.095969 -0.000410 2.867269 -2.709910 -9.555064 0.015267 0.059218 0.021494 -1.701128 3.586996 21.747934 -0.015267 0.059218 0.021494 1.701133 3.587006 -21.747923 0.025383 0.124268 0.007699 15.496304 -2.004292 10.372114 0.136062 -0.000000 -0.000000 -94.669755 16.597858 7.190028 0.225446 -0.000000 0.000000 -10.640303 4.787924 -30.044281 0.256325 0.000003 0.000015 -14.149222 40.804984 15.456809 0.074229 0.008101 0.022282 -0.012967 0.667617 1.112105 0.037712 0.000000 -0.000001 -1.679194 1.282864 0.674522 0.023218 0.000022 0.000021 -0.334984 1.286455 -0.710999 0.069261 0.008101 -0.033073 0.000005 -0.000045 0.000001 0.035643 -0.000000 -0.000000 0.000003 0.000000 -0.000001 0.020542 -0.000000 0.000000 0.890204 -0.008561 -1.101172 0.075240 0.008101 0.002320 -0.000001 -0.000010 -0.000006 0.042007 0.000000 -0.000000 0.000003 0.000036 -0.000013 0.025915 -0.000000 -0.000000 0.000003 0.000037 -0.000013 0.074383 0.008101 -0.015403 -0.000000 0.000010 0.000003 0.038967 -0.000000 0.000000 0.000002 0.000000 -0.000000 0.022488 -0.000000 0.000000 -0.712572 -0.008159 1.310730 0.003995 -0.010985 0.018096 86.199487 49.487521 -89.646568 0.052819 -0.000008 -0.000074 -2.573037 -0.739917 0.463019 0.032489 0.000042 -0.000035 4.590282 -0.705070 -0.717111 -0.025383 0.124268 0.007699 11.584773 -1.963346 -11.631294 -0.136062 0.000000 0.000000 60.413214 29.485138 10.010690 -0.225446 -0.000000 -0.000000 10.156107 22.222914 24.918885 -0.256325 0.000003 0.000015 -3.650753 29.641348 -1.137828 -0.074229 0.008101 0.022282 0.012970 0.667619 -1.112106 -0.037712 0.000000 -0.000001 1.679195 1.282861 -0.674522 -0.023218 0.000022 0.000021 0.334981 1.286453 0.710998 -0.069261 0.008101 -0.033073 -0.000004 -0.000043 -0.000001 -0.035643 -0.000000 -0.000000 -0.000003 -0.000000 -0.000001 -0.020542 0.000000 0.000000 -0.890204 -0.008562 1.101173 -0.075240 0.008101 0.002320 0.000001 -0.000008 0.000006 -0.042007 -0.000000 -0.000000 -0.000003 0.000039 0.000013 -0.025915 -0.000000 0.000000 -0.000003 0.000039 0.000013 -0.074383 0.008101 -0.015403 0.000000 0.000014 -0.000005 -0.038967 0.000000 -0.000000 -0.000004 -0.000000 0.000001 -0.022488 0.000000 -0.000000 0.712571 -0.008158 -1.310731 -0.003995 -0.010985 0.018096 -86.199433 49.487517 89.646581 -0.052819 -0.000008 -0.000074 2.573034 -0.739910 -0.463022 -0.032489 0.000042 -0.000035 -4.590282 -0.705066 0.717111 0.087143 -0.045243 0.001548 -6.457395 -11.014238 -1.238772 -0.000000 -0.394432 -0.000001 3.515181 21.547821 -6.193836 -0.000000 -0.466446 0.003058 4.908268 -11.288970 24.400916 0.000000 -0.079218 0.140851 0.000001 0.248282 -0.000001 -0.087143 -0.045243 0.001548 -8.283044 -14.063509 -2.026019 0.000000 -0.394432 -0.000001 6.264333 22.442482 -13.096471 -0.000000 -0.466446 0.003058 3.978442 -13.011187 17.638340 -0.000000 -0.079218 0.140851 -0.000001 0.248283 0.000002 
0.001393 1.033608 0.003153 -1.565468 15.591415 15.270664 0.000000 0.059888 0.006665 -3.026815 7.495629 3.157763 -0.000000 0.125681 -0.015911 -2.455023 0.664629 -0.552132 -0.000000 0.122768 -0.001652 -0.000017 -12.397669 -0.000049 0.000000 0.155865 0.008735 1.241057 13.389998 0.111754 -0.000000 0.095969 -0.000410 2.846047 -2.439348 -9.555762 0.015267 0.059218 0.021494 -1.701128 3.586991 21.747930 -0.015267 0.059218 0.021494 1.701134 3.587003 -21.747923 0.025383 0.124268 0.007699 15.381969 -2.026525 10.458369 0.136062 -0.000000 -0.000000 -94.565089 17.058582 6.929083 0.225446 0.000000 -0.000000 -10.454650 4.691411 -29.837664 0.256325 0.000003 0.000015 -14.373288 41.294661 15.802184 0.074229 0.008101 0.022282 -0.012966 0.667615 1.112105 0.037712 0.000000 -0.000001 -1.679195 1.282861 0.674522 0.023218 0.000022 0.000021 -0.334984 1.286455 -0.710999 0.069261 0.008101 -0.033073 0.000006 -0.000044 0.000000 0.035643 -0.000000 0.000000 0.000003 0.000004 0.000001 0.020542 0.000000 0.000000 0.890204 -0.008561 -1.101172 0.075240 0.008101 0.002320 0.000000 -0.000010 -0.000007 0.042007 -0.000000 0.000000 0.000003 0.000038 -0.000013 0.025915 -0.000000 0.000000 0.000004 0.000040 -0.000013 0.074383 0.008101 -0.015403 0.000000 0.000009 0.000003 0.038967 0.000000 -0.000000 0.000004 0.000003 -0.000000 0.022488 0.000000 0.000000 -0.712571 -0.008156 1.310730 0.003995 -0.010985 0.018096 86.199487 49.487524 -89.646574 0.052819 -0.000008 -0.000074 -2.573038 -0.739915 0.463019 0.032489 0.000042 -0.000035 4.590285 -0.705069 -0.717112 -0.025383 0.124268 0.007699 11.391299 -1.986439 -11.649453 -0.136062 -0.000000 0.000000 60.849582 29.373089 9.750320 -0.225446 -0.000000 -0.000000 10.154105 22.095274 24.742384 -0.256325 0.000003 0.000015 -3.308378 30.172610 -0.775820 -0.074229 0.008101 0.022282 0.012968 0.667620 -1.112106 -0.037712 0.000000 -0.000001 1.679195 1.282861 -0.674523 -0.023218 0.000022 0.000021 0.334982 1.286454 0.710998 -0.069261 0.008101 -0.033073 -0.000005 -0.000042 -0.000000 -0.035643 -0.000000 -0.000000 -0.000002 -0.000000 -0.000000 -0.020542 -0.000000 -0.000000 -0.890204 -0.008562 1.101173 -0.075240 0.008101 0.002320 0.000001 -0.000007 0.000006 -0.042007 -0.000000 0.000000 -0.000003 0.000039 0.000013 -0.025915 -0.000000 -0.000000 -0.000002 0.000039 0.000013 -0.074383 0.008101 -0.015403 0.000000 0.000015 -0.000004 -0.038967 0.000000 0.000000 -0.000003 -0.000000 -0.000001 -0.022488 0.000000 0.000000 0.712573 -0.008158 -1.310729 -0.003995 -0.010985 0.018096 -86.199433 49.487517 89.646581 -0.052819 -0.000008 -0.000074 2.573043 -0.739910 -0.463022 -0.032489 0.000042 -0.000035 -4.590280 -0.705066 0.717110 0.087143 -0.045243 0.001548 -6.808505 -10.508187 -1.247399 -0.000000 -0.394432 -0.000001 3.929480 21.027747 -6.009279 0.000000 -0.466446 0.003058 4.835855 -11.295605 24.067666 0.000000 -0.079218 0.140851 -0.000001 0.248276 0.000002 -0.087143 -0.045243 0.001548 -8.517253 -13.999923 -2.074867 -0.000000 -0.394432 -0.000001 6.456318 22.515252 -13.565648 -0.000000 -0.466446 0.003058 4.017457 -12.627060 18.314071 -0.000000 -0.079218 0.140851 0.000000 0.248287 0.000000 
0.001124 1.033402 0.003038 -1.448613 15.417202 15.248676 -0.000000 0.059888 0.006665 -3.130267 7.589506 3.355523 0.000000 0.125681 -0.015911 -2.519154 0.770454 -0.555149 0.000000 0.122768 -0.001652 -0.000016 -12.397665 -0.000046 -0.000000 0.155865 0.008735 1.218670 13.393703 0.109089 -0.000000 0.095969 -0.000410 2.610420 -1.723771 -9.669664 0.015267 0.059218 0.021494 -1.701129 3.586989 21.747932 -0.015267 0.059218 0.021494 1.701131 3.587001 -21.747923 0.025383 0.124268 0.007699 15.228088 -2.098652 10.630754 0.136062 -0.000000 0.000000 -94.333457 17.577755 6.668890 0.225446 -0.000000 -0.000000 -10.236790 4.692675 -29.287694 0.256325 0.000003 0.000015 -13.514402 41.486525 14.781079 0.074229 0.008101 0.022282 -0.012967 0.667624 1.112106 0.037712 0.000000 -0.000001 -1.679195 1.282860 0.674522 0.023218 0.000022 0.000021 -0.334984 1.286454 -0.710998 0.069261 0.008101 -0.033073 0.000005 -0.000041 0.000001 0.035643 0.000000 -0.000000 0.000003 -0.000000 0.000000 0.020542 -0.000000 0.000000 0.890204 -0.008562 -1.101172 0.075240 0.008101 0.002320 -0.000001 -0.000003 -0.000006 0.042007 -0.000000 -0.000000 0.000003 0.000037 -0.000013 0.025915 -0.000000 0.000000 0.000003 0.000039 -0.000012 0.074383 0.008101 -0.015403 -0.000000 0.000015 0.000004 0.038967 0.000000 0.000000 0.000003 0.000002 0.000000 0.022488 0.000000 -0.000000 -0.712572 -0.008158 1.310729 0.003995 -0.010985 0.018096 86.199494 49.487521 -89.646574 0.052819 -0.000008 -0.000074 -2.573037 -0.739913 0.463020 0.032489 0.000042 -0.000035 4.590287 -0.705066 -0.717112 -0.025383 0.124268 0.007699 11.133788 -2.059762 -11.744590 -0.136062 -0.000000 0.000000 61.236409 29.290412 9.510731 -0.225446 -0.000000 -0.000000 10.180423 21.958046 24.586579 -0.256325 0.000003 0.000015 -3.063755 30.584122 -0.536651 -0.074229 0.008101 0.022282 0.012969 0.667619 -1.112106 -0.037712 0.000000 -0.000001 1.679196 1.282861 -0.674521 -0.023218 0.000022 0.000021 0.334983 1.286453 0.710997 -0.069261 0.008101 -0.033073 -0.000005 -0.000043 -0.000000 -0.035643 -0.000000 0.000000 -0.000003 0.000000 -0.000000 -0.020542 -0.000000 -0.000000 -0.890205 -0.008562 1.101172 -0.075240 0.008101 0.002320 0.000001 -0.000008 0.000007 -0.042007 -0.000000 0.000000 -0.000003 0.000039 0.000013 -0.025915 -0.000000 -0.000000 -0.000003 0.000039 0.000013 -0.074383 0.008101 -0.015403 0.000001 0.000014 -0.000004 -0.038967 0.000000 -0.000000 -0.000003 -0.000000 0.000000 -0.022488 -0.000000 -0.000000 0.712572 -0.008158 -1.310730 -0.003995 -0.010985 0.018096 -86.199433 49.487517 89.646581 -0.052819 -0.000008 -0.000074 2.573040 -0.739910 -0.463022 -0.032489 0.000042 -0.000035 -4.590282 -0.705066 0.717110 0.087143 -0.045243 0.001548 -6.894306 -10.077025 -1.212000 0.000000 -0.394432 -0.000001 4.004212 20.449926 -3.821434 0.000000 -0.466446 0.003058 4.583725 -11.835448 21.976900 0.000000 -0.079218 0.140851 -0.000001 0.248283 -0.000002 -0.087143 -0.045243 0.001548 -8.619103 -13.866311 -2.080401 -0.000000 -0.394432 -0.000001 6.521848 22.294958 -13.600697 -0.000000 -0.466446 0.003058 3.991053 -12.490835 18.389364 -0.000000 -0.079218 0.140851 0.000000 0.248285 0.000001 
0.000816 1.033285 0.002686 -1.393888 15.267978 15.243908 -0.000000 0.059888 0.006665 -3.207191 7.674249 3.600102 -0.000000 0.125681 -0.015911 -2.549869 0.870167 -0.548103 -0.000000 0.122768 -0.001652 -0.000017 -12.397668 -0.000048 0.000000 0.155865 0.008735 1.189141 13.338250 0.102079 -0.000000 0.095969 -0.000410 2.247802 -0.808130 -9.764590 0.015267 0.059218 0.021494 -1.701130 3.586994 21.747932 -0.015267 0.059218 0.021494 1.701131 3.586998 -21.747923 0.025383 0.124268 0.007699 14.905867 -2.148379 10.706497 0.136062 -0.000000 -0.000000 -93.989598 18.258188 6.220217 0.225446 -0.000000 -0.000000 -9.999634 4.473011 -28.579251 0.256325 0.000003 0.000015 -12.988308 41.270137 13.705931 0.074229 0.008101 0.022282 -0.012967 0.667618 1.112106 0.037712 0.000000 -0.000001 -1.679195 1.282859 0.674522 0.023218 0.000022 0.000021 -0.334984 1.286451 -0.710999 0.069261 0.008101 -0.033073 0.000005 -0.000043 0.000001 0.035643 -0.000000 0.000000 0.000002 -0.000001 0.000000 0.020542 -0.000000 -0.000000 0.890204 -0.008560 -1.101172 0.075240 0.008101 0.002320 -0.000000 -0.000009 -0.000006 0.042007 0.000000 0.000000 0.000004 0.000038 -0.000012 0.025915 -0.000000 0.000000 0.000003 0.000035 -0.000012 0.074383 0.008101 -0.015403 0.000000 0.000010 0.000004 0.038967 0.000000 0.000000 0.000003 -0.000001 0.000000 0.022488 0.000000 -0.000000 -0.712572 -0.008158 1.310730 0.003995 -0.010985 0.018096 86.199487 49.487521 -89.646574 0.052819 -0.000008 -0.000074 -2.573034 -0.739911 0.463018 0.032489 0.000042 -0.000035 4.590284 -0.705072 -0.717110 -0.025383 0.124268 0.007699 10.765939 -2.111078 -11.750084 -0.136062 -0.000000 0.000000 61.715725 29.144776 9.228947 -0.225446 0.000000 0.000000 10.149070 21.774735 24.485651 -0.256325 0.000003 0.000015 -3.106129 31.105839 0.128445 -0.074229 0.008101 0.022282 0.012969 0.667620 -1.112105 -0.037712 0.000000 -0.000001 1.679196 1.282861 -0.674522 -0.023218 0.000022 0.000021 0.334983 1.286453 0.711000 -0.069261 0.008101 -0.033073 -0.000005 -0.000043 -0.000000 -0.035643 -0.000000 -0.000000 -0.000003 -0.000000 0.000002 -0.020542 -0.000000 -0.000000 -0.890204 -0.008562 1.101172 -0.075240 0.008101 0.002320 -0.000000 -0.000007 0.000006 -0.042007 -0.000000 -0.000000 -0.000002 0.000039 0.000014 -0.025915 -0.000000 -0.000000 -0.000003 0.000039 0.000014 -0.074383 0.008101 -0.015403 0.000000 0.000015 -0.000003 -0.038967 0.000000 -0.000000 -0.000003 -0.000000 0.000000 -0.022488 0.000000 -0.000000 0.712572 -0.008158 -1.310728 -0.003995 -0.010985 0.018096 -86.199433 49.487517 89.646581 -0.052819 -0.000008 -0.000074 2.573038 -0.739911 -0.463021 -0.032489 0.000042 -0.000035 -4.590275 -0.705066 0.717110 0.087143 -0.045243 0.001548 -6.823438 -9.819625 -1.169099 -0.000000 -0.394432 -0.000001 3.899322 20.164455 -1.405191 0.000000 -0.466446 0.003058 4.137653 -12.221512 19.413804 0.000000 -0.079218 0.140851 0.000002 0.248285 -0.000003 -0.087143 -0.045243 0.001548 -8.605095 -13.808225 -2.068456 -0.000000 -0.394432 -0.000001 6.453318 22.141802 -13.333973 -0.000000 -0.466446 0.003058 3.847631 -12.192800 18.181605 -0.000000 -0.079218 0.140851 -0.000000 0.248287 -0.000003 
